<?xml version="1.0" encoding="utf-8"?>
<!-- Generator: Adobe Illustrator 27.0.0, SVG Export Plug-In . SVG Version: 6.00 Build 0)  -->
<svg version="1.1" id="Layer_1" xmlns="http://www.w3.org/2000/svg" xmlns:xlink="http://www.w3.org/1999/xlink" x="0px" y="0px"
	 viewBox="0 0 266.53 302.22" style="enable-background:new 0 0 266.53 302.22;" xml:space="preserve">
<style type="text/css">
	.st0{fill:#EBB740;}
	.st1{fill:#64B05F;}
	.st2{fill:#64A0D7;}
	.st3{fill:#7D4495;}
	.st4{fill:#CF4433;}
</style>
<g>
	<path class="st0" d="M58.66,86.82c0-25.53,28.8-42.56,72.59-42.56c0.7,0,1.34,0.04,2.03,0.05V9.01c-0.55,0-1.06-0.04-1.62-0.04
		c-71.37,0-114.76,30.41-114.76,81.11c0,21.42,9.5,40.81,24.9,52.67l31.17-31.18C63.79,105.77,58.66,96.82,58.66,86.82"/>
	<path class="st1" d="M173.83,135.11l-55.55-9.74c-25.14-4.44-33.27-6.9-42.58-12.17c-0.97-0.5-1.84-1.06-2.73-1.62l-31.17,31.18
		c3.24,2.49,6.64,4.77,10.39,6.54c13.38,6.06,35.28,11.76,61.25,16.63l51.48,8.49c12.17,2.16,21.81,4.94,29.25,8.48l31.67-31.67
		C213.65,144.05,198.54,139.57,173.83,135.11"/>
	<path class="st2" d="M68.4,236.88c-11.37-10.13-15.42-21.51-15.83-41.77H9.19c1.21,30.4,6.07,45.81,19.46,62.05
		c19.4,23.32,54.7,35.39,104.62,35.98v-35.31C104.34,257.07,82.53,250.26,68.4,236.88"/>
	<path class="st3" d="M232.21,155.35c-2.04-1.49-4.18-2.84-6.38-4.14l-31.66,31.67c13.65,6.49,19.81,15.59,19.81,28.45
		c0,28.79-29.21,46.64-75.44,46.64c-1.81,0-3.5-0.1-5.27-0.15v35.31c1.25,0.01,2.39,0.11,3.65,0.11c34.08,0,57.99-5.28,79.48-17.85
		c25.57-14.61,40.94-40.14,40.94-68.11C257.34,185.76,248.04,166.72,232.21,155.35"/>
	<path class="st4" d="M189.23,60.47c10.97,8.54,15.41,17.43,16.64,34.07h42.17c-3.24-32.45-11.35-49.07-31.23-64.08
		c-18.77-13.99-47.4-21.24-83.53-21.45v35.3C157.39,44.6,175.84,49.83,189.23,60.47"/>
</g>
</svg>
