<?xml version="1.0" encoding="utf-8"?>
<!-- Generator: Adobe Illustrator 27.0.0, SVG Export Plug-In . SVG Version: 6.00 Build 0)  -->
<svg version="1.1" id="Layer_1" xmlns="http://www.w3.org/2000/svg" xmlns:xlink="http://www.w3.org/1999/xlink" x="0px" y="0px"
	 viewBox="0 0 233.06 103.51" style="enable-background:new 0 0 233.06 103.51;" xml:space="preserve">
<style type="text/css">
	.st0{fill:#6E6E70;}
	.st1{fill:#CF4333;}
	.st2{fill:#63B05F;}
	.st3{fill:#7D4395;}
	.st4{fill:#ECB741;}
	.st5{fill:#64A0D8;}
</style>
<g>
	<polygon class="st0" points="36.7,90.64 36.7,73.99 28.81,90.64 26.67,90.64 18.82,73.99 18.82,90.64 16.99,90.64 16.99,72.38 
		19.75,72.38 27.8,89.3 35.71,72.38 38.5,72.38 38.5,90.64 	"/>
	<polygon class="st0" points="68.9,90.64 68.9,72.38 83.03,72.38 83.03,74.08 70.76,74.08 70.76,80.54 82.32,80.54 82.32,82.21 
		70.76,82.21 70.76,88.94 83.25,88.94 83.25,90.64 	"/>
	<path class="st0" d="M119.77,88.94c2.3,0,3.26-0.16,4.27-0.74c1.81-0.98,2.76-3.31,2.76-6.65c0-3.72-1.2-6.13-3.47-7.03
		c-0.88-0.33-1.78-0.44-3.58-0.44h-5.31v14.86H119.77z M112.57,72.38h7.25c2.76,0,3.67,0.14,4.87,0.77c2.6,1.34,3.97,4.24,3.97,8.32
		c0,4.27-1.56,7.36-4.3,8.57c-1.07,0.46-2.03,0.6-4.63,0.6h-7.17V72.38z"/>
	<polygon class="st0" points="163.04,90.64 163.04,82.86 155.13,72.38 157.34,72.38 163.94,81.27 170.48,72.38 172.73,72.38 
		164.87,82.86 164.87,90.64 	"/>
	<path class="st0" d="M206.38,73.8l-4.24,9.56h8.49L206.38,73.8z M201.43,85l-2.57,5.64h-2.02l8.43-18.26h2.33l8.49,18.26h-2.13
		L211.4,85H201.43z"/>
	<path class="st0" d="M41.94,24.3c-0.16-2.22-0.76-3.41-2.22-4.55c-1.84-1.46-4.39-2.17-7.75-2.17c-5.85,0-9.7,2.28-9.7,5.69
		c0,1.46,0.82,2.77,2.28,3.52c1.24,0.71,2.33,1.03,5.69,1.63l7.42,1.3c3.9,0.71,6.01,1.41,7.8,2.71c2.12,1.52,3.36,4.06,3.36,6.94
		c0,3.74-2.05,7.15-5.47,9.1c-2.87,1.68-6.07,2.38-10.62,2.38c-6.94,0-11.81-1.63-14.47-4.82c-1.79-2.17-2.44-4.23-2.6-8.29h5.8
		c0.05,2.71,0.6,4.23,2.12,5.58c2,1.9,5.15,2.82,9.37,2.82c6.18,0,10.08-2.38,10.08-6.23c0-2.66-1.95-4.12-6.56-4.94l-6.88-1.13
		c-3.47-0.65-6.4-1.41-8.19-2.22c-2.87-1.35-4.72-4.45-4.72-7.91c0-6.77,5.8-10.84,15.34-10.84c4.93,0,8.83,0.97,11.38,2.87
		c2.66,2.01,3.74,4.23,4.17,8.56H41.94z"/>
	<polygon class="st0" points="128.63,50.86 128.63,33.84 106.52,33.84 106.52,50.86 100.94,50.86 100.94,14.71 106.52,14.71 
		106.52,29.13 128.63,29.13 128.63,14.71 134.21,14.71 134.21,50.86 	"/>
	<polygon class="st0" points="172.23,61.27 148.17,31.84 148.17,61.27 142.59,61.27 142.59,25.12 149.58,25.12 173.37,54.28 
		173.37,25.12 178.95,25.12 178.95,61.27 	"/>
	<polygon class="st0" points="187.32,50.86 187.32,14.71 216.91,14.71 216.91,19.75 192.9,19.75 192.9,29.89 215.5,29.89 
		215.5,34.93 192.9,34.93 192.9,45.82 217.4,45.82 217.4,50.86 	"/>
	<polygon class="st0" points="87.36,61.27 94.08,61.27 77.17,25.12 70.88,25.12 54.09,61.27 60.42,61.27 63.55,54.37 67.21,46.15 
		67.2,46.15 73.81,31.35 78,40.58 78.01,40.59 80.53,46.15 80.52,46.15 84.58,55.13 	"/>
	<rect x="15.66" y="55.81" class="st1" width="33.16" height="5.46"/>
	<rect x="100.93" y="55.81" class="st2" width="33.16" height="5.46"/>
	<rect x="142.59" y="14.71" class="st3" width="36.36" height="5.46"/>
	<rect x="54.09" y="14.71" class="st4" width="39.99" height="5.46"/>
	<rect x="187.32" y="55.81" class="st5" width="30.08" height="5.46"/>
</g>
</svg>
